External Loads File
version=1
nRows=78
nColumns=13
Range=5.000000e-03-10 seconds
endheader
time 	forceRightX 	forceRightY 	forceRightZ 	pointRightX 	pointRightY 	pointRightZ 	forceLeftX 	forceLeftY 	forceLeftZ 	pointLeftX 	pointLeftY 	pointLeftZ 		
7.505000 86.693296 46.898046 -0.000000 0.137812 0.265821 -0.144458 -94.873634 482.775453 -0.000000 0.399559 0.382379 -0.382406
7.510000 88.133000 40.995449 -0.000000 0.135443 0.275860 -0.144400 -61.244891 488.840573 -0.000000 0.402463 0.371543 -0.382282
7.515000 88.592281 35.447668 -0.000000 0.133667 0.286218 -0.144379 -25.868207 490.793537 -0.000000 0.404791 0.360524 -0.382254
7.520000 87.989521 30.413823 -0.000000 0.132484 0.296642 -0.144430 10.144270 489.226853 -0.000000 0.406555 0.349443 -0.382207
7.525000 86.314981 25.886449 -0.000000 0.131839 0.307200 -0.144561 46.480383 484.637249 -0.000000 0.407646 0.338329 -0.382097
7.530000 83.577910 21.812073 -0.000000 0.131803 0.317941 -0.144651 82.885474 477.323591 -0.000000 0.407939 0.327245 -0.382255
7.535000 79.807452 18.150380 -0.000000 0.132324 0.328601 -0.144875 118.785947 467.524188 -0.000000 0.407803 0.316222 -0.382063
7.540000 75.105411 14.663000 -0.000000 0.133428 0.339446 -0.145050 154.498099 455.189813 -0.000000 0.407187 0.305207 -0.382323
7.545000 69.545862 11.232032 -0.000000 0.134642 0.350291 -0.145630 189.410543 440.427646 -0.000000 0.405546 0.294273 -0.381909
7.550000 63.203790 7.644655 -0.000000 0.136872 0.361168 -0.145866 223.433560 423.195280 -0.000000 0.403559 0.283450 -0.381726
7.555000 56.134706 3.811269 -0.000000 0.139689 0.371879 -0.146125 256.022029 403.684635 -0.000000 0.400965 0.272795 -0.381658
7.560000 48.426317 -0.330966 -0.000000 0.143072 0.382578 -0.146344 287.093753 381.898086 -0.000000 0.397721 0.262412 -0.381625
7.565000 40.198615 -4.700479 -0.000000 0.146870 0.393074 -0.146585 316.185865 358.162292 -0.000000 0.393927 0.252255 -0.381515
7.570000 31.597100 -9.222218 -0.000000 0.151717 0.403330 -0.146449 343.412583 332.429184 -0.000000 0.389619 0.242409 -0.381508
7.575000 22.793422 -13.705379 -0.000000 0.156521 0.413528 -0.146799 368.270081 305.301534 -0.000000 0.384728 0.232845 -0.381465
7.580000 13.966478 -17.957010 -0.000000 0.161878 0.423432 -0.147085 390.681622 277.173917 -0.000000 0.379349 0.223762 -0.381339
7.585000 5.302845 -21.718778 -0.000000 0.167622 0.432967 -0.147487 410.724447 248.375637 -0.000000 0.373491 0.215090 -0.381225
7.590000 -3.006510 -24.645734 -0.000000 0.173709 0.442225 -0.147824 428.577268 219.132223 -0.000000 0.367165 0.206950 -0.381047
7.595000 -10.793481 -26.318448 -0.000000 0.180270 0.450954 -0.148231 444.446165 189.586230 -0.000000 0.360466 0.199214 -0.380919
7.600000 -17.902273 -26.305722 -0.000000 0.186621 0.459125 -0.149124 458.246821 160.554419 -0.000000 0.353335 0.191964 -0.380887
7.605000 -24.403842 -24.058985 -0.000000 0.194361 0.466891 -0.149281 470.749787 130.113428 -0.000000 0.345827 0.185288 -0.380779
7.610000 -30.199547 -19.196155 -0.000000 0.202117 0.473930 -0.150031 481.172688 100.299270 -0.000000 0.338028 0.179209 -0.380647
7.615000 -35.336340 -11.331218 -0.000000 0.210011 0.480456 -0.150472 489.378607 70.996854 -0.000000 0.329906 0.173698 -0.380548
7.620000 -39.817923 -0.233168 -0.000000 0.218208 0.486365 -0.150896 494.869462 42.517558 -0.000000 0.321458 0.168801 -0.380435
7.625000 -43.609036 14.090309 -0.000000 0.226769 0.491677 -0.151304 496.849148 15.740012 -0.000000 0.312805 0.164524 -0.380307
7.630000 -46.652326 31.333871 -0.000000 0.235486 0.496403 -0.151654 494.342580 -7.893320 -0.000000 0.303904 0.160865 -0.380232
7.635000 -48.906717 50.859252 -0.000000 0.244274 0.500354 -0.152122 486.316550 -26.420455 -0.000000 0.294902 0.157708 -0.380127
7.640000 -50.325197 71.820016 -0.000000 0.253319 0.503620 -0.152556 471.744467 -38.175938 -0.000000 0.285728 0.155346 -0.380016
7.645000 -51.102198 93.124915 -0.000000 0.262102 0.506110 -0.152717 449.886338 -40.217475 -0.000000 0.276432 0.153807 -0.379853
7.650000 -51.360276 113.842934 -0.000000 0.271005 0.507766 -0.152809 420.381063 -30.963811 -0.000000 0.267092 0.152981 -0.379686
7.655000 -51.434776 133.135534 -0.000000 0.279819 0.508657 -0.152853 383.706201 -8.743878 -0.000000 0.257747 0.152881 -0.379549
7.660000 -51.730363 150.470951 -0.000000 0.288456 0.508643 -0.152816 341.416049 26.390729 -0.000000 0.248461 0.153485 -0.379341
7.665000 -52.686584 165.689170 -0.000000 0.296880 0.507969 -0.152593 296.379588 71.491736 -0.000000 0.239280 0.154740 -0.379069
7.670000 -54.541462 179.050979 -0.000000 0.305324 0.506483 -0.152584 252.595830 119.820589 -0.000000 0.230197 0.156684 -0.378851
7.675000 -57.769158 190.993388 -0.000000 0.313515 0.504251 -0.152333 213.606141 163.484747 -0.000000 0.221380 0.159366 -0.378480
7.680000 -62.373489 202.213889 -0.000000 0.321490 0.501078 -0.152053 181.460401 195.975886 -0.000000 0.212669 0.162721 -0.378110
7.685000 -68.403525 213.417696 -0.000000 0.329280 0.497233 -0.151747 156.340642 214.923662 -0.000000 0.204093 0.166673 -0.377876
7.690000 -75.901653 225.277918 -0.000000 0.336789 0.492725 -0.151447 137.418943 221.249017 -0.000000 0.195708 0.171179 -0.377900
7.695000 -84.961732 238.365185 -0.000000 0.344020 0.487624 -0.151238 123.594320 217.717081 -0.000000 0.187810 0.176220 -0.377566
7.700000 -95.357854 253.252811 -0.000000 0.350802 0.481796 -0.151084 114.228359 207.519472 -0.000000 0.180114 0.181809 -0.377087
7.705000 -106.676757 270.484203 -0.000000 0.357499 0.475222 -0.150735 108.956039 193.555857 -0.000000 0.172565 0.187885 -0.376895
7.710000 -119.023707 290.263788 -0.000000 0.363866 0.468077 -0.150469 106.980163 178.199958 -0.000000 0.165239 0.194406 -0.376820
7.715000 -132.132395 312.746436 -0.000000 0.369883 0.460198 -0.150243 107.632109 162.762589 -0.000000 0.158178 0.201387 -0.377048
7.720000 -145.860143 337.832317 -0.000000 0.375780 0.451873 -0.149763 109.975908 147.908244 -0.000000 0.151499 0.208707 -0.377031
7.725000 -160.048045 365.255636 -0.000000 0.381058 0.443069 -0.149684 113.015536 133.910887 -0.000000 0.145194 0.216616 -0.377048
7.730000 -174.632369 394.622706 -0.000000 0.385882 0.433909 -0.149733 115.723702 120.902761 -0.000000 0.139485 0.224887 -0.377011
7.735000 -188.590261 425.975396 -0.000000 0.390400 0.424242 -0.149651 117.381704 108.707500 -0.000000 0.133914 0.233536 -0.377210
7.740000 -202.413890 458.722368 -0.000000 0.394473 0.414305 -0.149445 116.956176 97.693777 -0.000000 0.129217 0.242578 -0.377199
7.745000 -214.690485 493.078180 -0.000000 0.398183 0.403760 -0.149205 114.181665 87.885049 -0.000000 0.124977 0.252055 -0.377202
7.750000 -225.639652 528.393241 -0.000000 0.401427 0.392992 -0.149075 108.830889 79.845231 -0.000000 0.121271 0.261777 -0.377200
7.755000 -235.064124 564.013044 -0.000000 0.404268 0.382237 -0.148960 101.407402 73.956299 -0.000000 0.118107 0.271685 -0.377183
7.760000 -241.681295 599.583010 -0.000000 0.406626 0.371254 -0.148792 93.244917 70.136825 -0.000000 0.115603 0.281953 -0.377222
7.765000 -245.062249 634.340456 -0.000000 0.408444 0.359970 -0.148571 85.858948 68.051475 -0.000000 0.113879 0.292354 -0.377225
7.770000 -245.472504 667.333495 -0.000000 0.409731 0.348918 -0.148191 80.375908 67.077274 -0.000000 0.112801 0.302937 -0.377257
7.775000 -241.781359 698.230116 -0.000000 0.410625 0.337658 -0.147940 77.445185 66.296542 -0.000000 0.112393 0.313550 -0.377284
7.780000 -234.261423 726.223113 -0.000000 0.411005 0.326453 -0.147617 77.011297 65.054771 -0.000000 0.112640 0.324201 -0.377376
7.785000 -222.688781 750.736682 -0.000000 0.410875 0.315283 -0.147482 78.649568 62.816568 -0.000000 0.113265 0.334925 -0.377267
7.790000 -207.775773 771.020245 -0.000000 0.410363 0.304308 -0.147304 81.624262 59.366234 -0.000000 0.114791 0.345643 -0.377257
7.795000 -189.325388 786.795170 -0.000000 0.409037 0.293406 -0.147506 85.219145 54.595531 -0.000000 0.116079 0.356586 -0.376482
7.800000 -169.798853 797.398102 -0.000000 0.407291 0.282721 -0.147344 88.546799 48.857237 -0.000000 0.118647 0.366962 -0.376536
7.805000 -149.149787 803.071011 -0.000000 0.404869 0.272466 -0.146463 90.988403 42.377663 -0.000000 0.121786 0.377298 -0.376577
7.810000 -126.569166 804.289425 -0.000000 0.401982 0.261924 -0.146217 92.092049 35.376375 -0.000000 0.125478 0.387591 -0.376642
7.815000 -105.536630 800.965830 -0.000000 0.398726 0.252080 -0.145993 91.362591 28.620834 -0.000000 0.129775 0.397698 -0.376674
7.820000 -85.558405 793.841616 -0.000000 0.394983 0.242492 -0.145785 88.668584 22.460031 -0.000000 0.134342 0.407632 -0.376689
7.825000 -66.565183 783.565552 -0.000000 0.390797 0.233292 -0.145849 84.091679 17.243898 -0.000000 0.139609 0.417375 -0.376740
7.830000 -49.796920 770.643526 -0.000000 0.386263 0.224482 -0.146020 78.024458 13.305111 -0.000000 0.145165 0.426666 -0.376765
7.835000 -33.496881 755.733748 -0.000000 0.381172 0.216050 -0.145865 71.231886 10.445027 -0.000000 0.151357 0.435909 -0.377328
7.840000 -19.313074 739.203775 -0.000000 0.375667 0.208007 -0.145789 64.550264 8.602153 -0.000000 0.157786 0.444675 -0.376623
7.845000 -7.552785 721.487282 -0.000000 0.369777 0.200389 -0.145686 58.691331 7.450854 -0.000000 0.164174 0.452919 -0.376479
7.850000 2.741890 702.915145 -0.000000 0.363479 0.193378 -0.145659 54.036500 6.577022 -0.000000 0.170929 0.460719 -0.376515
7.855000 14.719581 683.577152 -0.000000 0.356788 0.186796 -0.145647 50.670271 5.482059 -0.000000 0.179157 0.468646 -0.377510
7.860000 21.766117 663.585485 -0.000000 0.349775 0.180719 -0.145594 48.408157 4.449995 -0.000000 0.185985 0.475271 -0.377056
7.865000 29.043056 642.755559 -0.000000 0.342468 0.175199 -0.145564 47.064387 2.969348 -0.000000 0.193675 0.481397 -0.377140
7.870000 36.271256 620.897970 -0.000000 0.334835 0.170199 -0.145432 46.364682 1.037538 -0.000000 0.201906 0.487077 -0.377406
7.875000 42.309795 597.883556 -0.000000 0.326917 0.165807 -0.145278 46.061421 -1.241431 -0.000000 0.210085 0.492114 -0.377370
7.880000 47.705028 573.528923 -0.000000 0.318726 0.162101 -0.145126 45.958742 -3.880086 -0.000000 0.218457 0.496599 -0.377388
7.885000 52.116517 547.780090 -0.000000 0.310399 0.158995 -0.145029 45.896432 -6.787376 -0.000000 0.226881 0.500551 -0.377487
7.890000 55.853152 520.622308 -0.000000 0.301867 0.156459 -0.144975 45.748299 -9.897736 -0.000000 0.235516 0.503738 -0.377611
